<svg xmlns="http://www.w3.org/2000/svg" viewBox="0 0 64 64" width="64" height="64">
  <rect x="2" y="2" width="60" height="60" rx="16" fill="#0a1510"/>
  <rect x="2" y="2" width="60" height="60" rx="16" fill="none" stroke="#d8b872" stroke-width="2.5"/>
  <path d="M32 12c11 3 17 11 17 21 0 8-6 15-14 17.5C34 46 32 41 32 41s-2 5-3 9.5C21 48 15 41 15 33c0-10 6-18 17-21z" fill="#7c9070"/>
  <path d="M32 16v30" stroke="#0a1510" stroke-width="1.6" stroke-linecap="round"/>
  <path d="M32 24c-3 2-6 3-9 3M32 32c3 2 6 3 9 3" stroke="#0a1510" stroke-width="1.4" stroke-linecap="round" fill="none"/>
</svg>